<?xml version="1.0"?>
<svg viewBox="0 0 52.91666 15.244921" xmlns="http://www.w3.org/2000/svg" xmlns:svg="http://www.w3.org/2000/svg">

 <metadata id="metadata5">image/svg+xml</metadata>
 <g class="layer">
  <title>Layer 1</title>
  <g id="layer1">
   <g id="layer1-1" transform="matrix(0.0397822 0 0 0.0397822 -658.515 317.362)">
    <path d="m16781.895761,-7614.738805c63.5635,-11.22863 116.06332,-20.52032 116.66629,-20.64819l1.09632,-0.2325l-60.01021,-71.38026c-33.00559,-39.25915 -60.01018,-71.53249 -60.01018,-71.71853c0,-0.35223 61.96561,-170.99213 62.31396,-171.59921c0.11647,-0.20297 42.28595,72.60148 102.22159,176.4828c56.11284,97.25555 102.37515,177.4431 102.80515,178.19452l0.78184,1.36624l-190.7174,-0.0246l-190.71736,-0.0245l115.57,-20.4157l0,-0.00007zm731.37889,-17.26291c-29.03093,-1.86128 -45.91544,-18.39214 -50.38974,-49.33422c-1.19021,-8.2311 -1.19476,-8.44466 -1.31656,-61.88078l-0.11789,-51.71723l12.84834,0l12.8483,0l0.10118,50.02389c0.0912,45.08514 0.14842,50.37131 0.57946,53.54292c1.74935,12.87168 5.23201,21.5276 11.16124,27.74067c4.74528,4.97242 10.30038,7.8839 17.99011,9.42882c3.62783,0.72884 13.94813,0.7303 17.25569,0.003c7.79588,-1.7156 14.0442,-5.10811 19.55617,-10.61799c6.28249,-6.28012 10.93015,-15.1903 13.17899,-25.26595l0.75793,-3.39586l0.0844,-50.44723l0.0844,-50.44722l13.11732,0l13.11735,0l0,79.30445l0,79.30444l-12.98222,0l-12.98222,0l0,-12.5824c0,-8.54933 -0.0937,-12.55118 -0.29222,-12.485c-0.16069,0.0536 -0.82744,1.07357 -1.48166,2.26667c-4.47373,8.15896 -11.92745,15.62029 -20.09501,20.1155c-9.79024,5.38827 -19.60858,7.30422 -33.02333,6.44412l-0.00003,-0.0006zm294.66636,-0.12816c-10.24795,-0.7703 -21.03846,-4.29359 -29.85796,-9.74908c-18.58873,-11.49853 -29.58761,-30.45184 -32.80805,-56.53499c-1.11441,-9.02575 -1.24835,-21.14964 -0.3184,-28.81907c2.07786,-17.13682 8.81185,-33.95976 18.40106,-45.96982c2.45824,-3.07883 8.03495,-8.65553 11.11365,-11.11361c8.31379,-6.63788 18.03843,-11.27962 28.36334,-13.53833c6.01579,-1.31603 16.60968,-1.93394 23.00111,-1.34159c16.05576,1.48805 30.77105,9.04765 40.77267,20.94589c10.1615,12.08847 15.74681,28.98006 16.46007,49.77987c0.11179,3.25966 0.13889,8.97466 0.0603,12.7l-0.143,6.77333l-56.23278,0.0712l-56.23278,0.0712l0,2.5094c0,7.63915 1.85722,16.33991 5.06795,23.74265c2.76877,6.38373 7.53485,13.35462 11.43714,16.72802c8.00131,6.91687 17.79386,11.05701 28.50936,12.05334c3.97318,0.3694 14.09889,-0.0195 18.62666,-0.7152c12.91802,-1.98524 25.19946,-7.052 35.11745,-14.48783c1.16688,-0.87486 2.28357,-1.69223 2.48152,-1.81635c0.28968,-0.18164 0.35814,2.10408 0.35081,11.71222l-0.009,11.93792l-2.65743,1.64355c-11.21971,6.93911 -24.07305,11.39481 -37.68211,13.06277c-4.06135,0.49775 -18.96443,0.71949 -23.82142,0.35441l-0.00016,0.0001zm48.93919,-100.68528c0,-12.79609 -5.39245,-27.01096 -13.02337,-34.3305c-5.44587,-5.22367 -12.02921,-8.41603 -19.85552,-9.62822c-3.70264,-0.5735 -11.50631,-0.35262 -15.41004,0.43617c-8.25234,1.66748 -15.07811,5.29536 -21.03154,11.17821c-6.26561,6.19133 -10.96323,13.71122 -13.91756,22.27909c-1.06234,3.08091 -2.30488,8.13901 -2.69056,10.95257l-0.18376,1.34056l43.05616,0l43.05619,0l0,-2.22788zm-762.78732,96.70177c0.06587,-0.19403 19.1612,-50.3586 42.43409,-111.47682l42.31434,-111.12404l13.59583,-0.00085l13.5958,-0.00084l1.12805,2.89278c3.4472,8.84008 84.71032,219.82159 84.71032,219.9312c0,0.0722 -6.50875,0.13039 -14.46389,0.12923l-14.46389,-0.003l-11.71222,-31.18282l-11.71222,-31.18281l-47.15885,-0.00057l-47.15886,-0.00056l-0.40982,1.05833c-0.22538,0.58208 -5.22938,14.61335 -11.12003,31.18062l-10.71022,30.12225l-14.49409,0.005c-11.4727,0.004 -14.46911,-0.0686 -14.37434,-0.34784l0,0.00074zm136.81843,-85.81487c0,-0.0494 -7.88187,-21.41719 -17.51527,-47.48389c-18.02243,-48.7663 -19.03061,-51.70045 -20.45454,-59.52958c-0.66771,-3.67122 -1.00556,-3.77324 -1.40188,-0.42333c-0.2833,2.39448 -1.51167,7.75245 -2.45866,10.72445c-0.46988,1.47461 -8.58577,23.74972 -18.03533,49.50024c-9.44954,25.75052 -17.18099,46.92777 -17.18099,47.06055c0,0.13279 17.33551,0.24143 38.52334,0.24143c21.18783,0 38.52333,-0.0404 38.52333,-0.0899l0,0.00003zm69.70889,82.10639l0,-4.06127l46.98461,-64.58929l46.98461,-64.5893l-42.53961,-0.14111l-42.53961,-0.14111l-0.0739,-10.795l-0.0739,-10.795l61.52781,0l61.5278,0l0,3.64606l0,3.64606l-46.99,64.94153c-25.8445,35.71785 -46.99,65.00162 -46.99,65.07506c0,0.0734 20.8915,0.13352 46.42555,0.13352l46.42556,0l0,10.86555l0,10.86556l-65.33447,0l-65.33445,0l0,-4.06126zm344.78149,3.8731c-0.10349,-0.10346 -0.18816,-35.91746 -0.18816,-79.58666l0,-79.39852l12.84112,0l12.84111,0l0,16.36889c0,9.00289 0.10947,16.36889 0.2433,16.36889c0.13383,0 0.75881,-1.47368 1.38884,-3.27484c2.88711,-8.2536 7.89393,-15.96572 14.34443,-22.09509c5.81095,-5.52166 12.45235,-8.82364 20.28898,-10.08729c2.20134,-0.35497 4.064,-0.42274 8.46667,-0.30806c5.52924,0.14402 8.42001,0.54819 11.78278,1.64738l1.05833,0.34594l0,13.32894l0,13.32893l-3.03389,-1.51868c-5.3592,-2.68267 -10.64714,-3.74429 -17.00389,-3.41375c-4.13707,0.21513 -6.85252,0.74636 -10.16,1.98766c-6.80519,2.55399 -12.32518,7.06198 -16.18228,13.2155c-5.58374,8.90817 -9.56612,20.35873 -10.7407,30.88287c-0.21079,1.88864 -0.33508,17.27019 -0.38459,47.59327l-0.0731,44.80278l-12.65041,0c-6.95771,0 -12.73506,-0.0847 -12.83852,-0.18816l-0.00002,0zm-1092.38816,-0.55758c0,-0.1005 28.27652,-49.18632 62.83671,-109.07964l62.8367,-108.89694l73.22891,-61.45385c40.2759,-33.79961 73.33737,-61.49516 73.46992,-61.54567c0.13255,-0.0505 -0.39727,1.28299 -1.17738,2.96333c-0.78011,1.68034 -36.56244,78.42967 -79.51629,170.55406l-78.09789,167.49889l-56.79034,0.0712c-31.23468,0.0392 -56.79034,-0.011 -56.79034,-0.11142l0,0.00004z" fill="#ffffff" id="path21" stroke-width="0.282222"/>
   </g>
  </g>
 </g>
</svg>