<svg xmlns="http://www.w3.org/2000/svg" version="1.1" xmlns:xlink="http://www.w3.org/1999/xlink" xmlns:svgjs="http://svgjs.com/svgjs" width="400" height="400"><svg xmlns="http://www.w3.org/2000/svg" viewBox="0 0 400 400"><defs><style>.cls-1{fill:#2880e3;}</style></defs><title>logo_skygrasp_icon</title><g id="SvgjsG1001" data-name="Layer 2"><g id="SvgjsG1000" data-name="Layer 1"><path class="cls-1" d="M400,200q0,8.79-.75,17.39C390.44,319.71,304.6,400,200,400A199.12,199.12,0,0,1,74.41,355.66a3.48,3.48,0,0,1-.29-5.18l19.8-19.8a3.47,3.47,0,0,1,4.58-.31,165.23,165.23,0,0,0,265.35-109,3.49,3.49,0,0,0-3.45-3.94H332.29a3.45,3.45,0,0,0-3.43,2.92,130.45,130.45,0,0,1-257.72,0,3.46,3.46,0,0,0-3.43-2.91H4A3.46,3.46,0,0,1,.5,214.18Q0,207.16,0,200q0-8.79.75-17.39C9.56,80.29,95.4,0,200,0A199.12,199.12,0,0,1,325.59,44.34a3.48,3.48,0,0,1,.29,5.18l-19.8,19.8a3.47,3.47,0,0,1-4.58.31,165.23,165.23,0,0,0-265.35,109,3.49,3.49,0,0,0,3.45,3.94H67.71a3.45,3.45,0,0,0,3.43-2.92A130.47,130.47,0,0,1,275.83,93.86a3.48,3.48,0,0,1,.42,5.29l-20,20a3.47,3.47,0,0,1-4.32.47A95.65,95.65,0,0,0,121.19,254.21a96.2,96.2,0,0,0,24.6,24.6,95.67,95.67,0,0,0,147.4-57.18,3.48,3.48,0,0,0-3.4-4.24H203.48a3.48,3.48,0,0,1-3.48-3.48V186.09a3.48,3.48,0,0,1,3.48-3.48H396a3.46,3.46,0,0,1,3.47,3.21Q400,192.84,400,200Z"></path></g></g></svg><style>@media (prefers-color-scheme: light) { :root { filter: none; } }
</style></svg>