<svg xmlns="http://www.w3.org/2000/svg" viewBox="0 0 1104.09 194.27"><defs><style>.cls-1{fill:#f8f9fa;}.cls-2{fill:#2880e3;}</style></defs><title>logo_skygrasp_dark</title><g id="Layer_2" data-name="Layer 2"><g id="Layer_1-2" data-name="Layer 1"><path class="cls-1" d="M239.44,150.27a73.48,73.48,0,0,1-22.1-15.42,6.22,6.22,0,0,1-2.47-4.94,6.42,6.42,0,0,1,2-4.52,6,6,0,0,1,4.42-2.06,6.3,6.3,0,0,1,4.52,2.06q16,17.69,40.09,17.68,14.81,0,24.57-7t9.77-18.3q0-8.84-4.83-14.7a36.29,36.29,0,0,0-12.65-9.56,168.72,168.72,0,0,0-19.94-7.61,121.56,121.56,0,0,1-22.1-8.63,40.42,40.42,0,0,1-14.5-12.65q-5.55-7.9-5.55-20a33,33,0,0,1,5.86-19.33A39.38,39.38,0,0,1,242.94,12,58.13,58.13,0,0,1,267.3,7.17a65.21,65.21,0,0,1,23.54,4.21,42.17,42.17,0,0,1,17.58,12q3.09,3.49,3.09,6a5.78,5.78,0,0,1-2.06,4.22,6.45,6.45,0,0,1-4.52,1.95,4.75,4.75,0,0,1-3.5-1.44,40.48,40.48,0,0,0-14.8-10.69A47.11,47.11,0,0,0,267.3,19.3q-15,0-24.47,6.68a21.14,21.14,0,0,0-9.45,18.2q0,11.93,9,18.3T268.33,74.2A155.3,155.3,0,0,1,292.18,83a39.14,39.14,0,0,1,15.11,12.85q5.86,8.33,5.86,21.89a32.09,32.09,0,0,1-6.06,19,41.15,41.15,0,0,1-16.86,13.47,58.5,58.5,0,0,1-24.57,4.93Q250.85,155.2,239.44,150.27Z"/><path class="cls-1" d="M424.38,147a5.44,5.44,0,0,1-2.16,4.42,6.54,6.54,0,0,1-4,1.75,5.64,5.64,0,0,1-4.52-2.27l-45.44-48.11-15.42,13.16v31a6.17,6.17,0,1,1-12.34,0V7.17a6.17,6.17,0,1,1,12.34,0v93.75l59.42-51.19a5.65,5.65,0,0,1,4.32-2.06,5.55,5.55,0,0,1,4.11,2,6,6,0,0,1,1.85,4.21,6.67,6.67,0,0,1-2.26,4.73l-42.36,36,44.62,47.7A6.88,6.88,0,0,1,424.38,147Z"/><path class="cls-1" d="M532,48a6,6,0,0,1,1.75,4.42v90.67q0,16.25-6.37,27.76A42.6,42.6,0,0,1,509.7,188.3a53.74,53.74,0,0,1-25.49,6,67.42,67.42,0,0,1-16.14-1.85,42.79,42.79,0,0,1-12.44-4.94q-4.32-2.67-4.32-6a12.75,12.75,0,0,1,.41-2.06,5.59,5.59,0,0,1,2.06-3.08,5.18,5.18,0,0,1,3.08-1,5.47,5.47,0,0,1,2.47.62q13.16,7.18,25.08,7.19,17.07,0,27-10.69t10-29.19v-7.2A37.62,37.62,0,0,1,506.62,150a43.35,43.35,0,0,1-21,5.24q-17.89,0-27.14-10.69t-9.25-29V52.4a6.17,6.17,0,1,1,12.33,0v61.27q0,14.81,6.48,22.41t20.25,7.61a33.19,33.19,0,0,0,16.14-4.22,34.49,34.49,0,0,0,12.34-11.1,25.91,25.91,0,0,0,4.62-14.7V52.4A6.25,6.25,0,0,1,532,48Z"/><path class="cls-1" d="M678.61,82.32a6,6,0,0,1,1.74,4.42v49.55a6.37,6.37,0,0,1-3.08,5.55,75,75,0,0,1-20.56,9.87,77.59,77.59,0,0,1-23,3.49q-21,0-37.83-9.66A70.34,70.34,0,0,1,569.33,119q-9.68-16.86-9.67-37.83t9.67-37.84a70.49,70.49,0,0,1,26.52-26.52q16.86-9.66,37.83-9.66a82.75,82.75,0,0,1,21.08,2.67A66.81,66.81,0,0,1,673,17.45a5.8,5.8,0,0,1,2.88,5.14,6.31,6.31,0,0,1-1.75,4.52,5.34,5.34,0,0,1-4,1.85,6.81,6.81,0,0,1-3.7-1,67.24,67.24,0,0,0-32.69-8.43,61.56,61.56,0,0,0-31.35,8,56.9,56.9,0,0,0-21.69,22.11,63.94,63.94,0,0,0-7.82,31.56,63.88,63.88,0,0,0,7.82,31.55,56.84,56.84,0,0,0,21.69,22.11,61.56,61.56,0,0,0,31.35,8,66.94,66.94,0,0,0,17.79-2.47,61.15,61.15,0,0,0,15.93-6.79V92.9H634.91a6.35,6.35,0,0,1-4.52-1.74,6.21,6.21,0,0,1,0-8.84,6.31,6.31,0,0,1,4.52-1.75h39.28A6,6,0,0,1,678.61,82.32Z"/><path class="cls-1" d="M765.47,47.26a5.28,5.28,0,0,1,3.29,4.94,6.48,6.48,0,0,1-1.64,4.62,5.18,5.18,0,0,1-3.91,1.75,15.53,15.53,0,0,1-4-1,17.5,17.5,0,0,0-5.65-1q-7.62,0-15.12,5.86A45.75,45.75,0,0,0,726.1,77.48a40.07,40.07,0,0,0-4.83,18.71V147a6.17,6.17,0,1,1-12.34,0V54.87a6.17,6.17,0,1,1,12.34,0V73a47.13,47.13,0,0,1,14.29-19.43,35.65,35.65,0,0,1,22.51-7.91A16.39,16.39,0,0,1,765.47,47.26Z"/><path class="cls-1" d="M875.37,49.93a6.39,6.39,0,0,1,1.74,4.53V147a6.17,6.17,0,1,1-12.33,0V133.2a43.13,43.13,0,0,1-15.42,15.63A41.75,41.75,0,0,1,827,155.2,44.23,44.23,0,0,1,802.17,148a49.51,49.51,0,0,1-17.27-19.74,62.12,62.12,0,0,1-6.27-28.17A60.63,60.63,0,0,1,785,72a48.76,48.76,0,0,1,17.38-19.43,45.92,45.92,0,0,1,47-1A39.35,39.35,0,0,1,864.78,67.2V54.46a6.35,6.35,0,0,1,1.75-4.53,6.21,6.21,0,0,1,8.84,0Zm-28,88.1a38.21,38.21,0,0,0,13.37-15.62,50.53,50.53,0,0,0,4.83-22.31,48.89,48.89,0,0,0-4.83-21.79A38.53,38.53,0,0,0,847.4,62.78a34.08,34.08,0,0,0-19.22-5.65A34.45,34.45,0,0,0,809,62.68,37.85,37.85,0,0,0,795.59,78a49.19,49.19,0,0,0-4.83,22.1,51.48,51.48,0,0,0,4.73,22.31A37.46,37.46,0,0,0,808.75,138a34.29,34.29,0,0,0,19.43,5.66A33.93,33.93,0,0,0,847.4,138Z"/><path class="cls-1" d="M901.78,132a4.48,4.48,0,0,1,2.68-4.11,4.4,4.4,0,0,1,3.29-1.24,6.3,6.3,0,0,1,4.52,2.06q12.13,16,32.28,16a31.44,31.44,0,0,0,17.17-4.63,15,15,0,0,0,7.3-13.47q0-8.62-6.79-13t-18.91-7.4Q926.25,102,916.59,95.06t-9.67-20.25a25.55,25.55,0,0,1,4.73-15.11A31.18,31.18,0,0,1,924.5,49.32a43.88,43.88,0,0,1,18.4-3.7A49.89,49.89,0,0,1,960.69,49,37.54,37.54,0,0,1,976,59.8a4.91,4.91,0,0,1,1.85,4.11,5.65,5.65,0,0,1-2.06,4.32,5.5,5.5,0,0,1-3.7,1.24,5.09,5.09,0,0,1-3.7-1.65,32.52,32.52,0,0,0-11.72-8.43,37,37,0,0,0-14.6-2.88A29.44,29.44,0,0,0,925.53,61q-6.88,4.51-6.89,13.57a14.79,14.79,0,0,0,7.51,12.54Q933.25,91.47,947,95a98.26,98.26,0,0,1,17.68,6,29.72,29.72,0,0,1,11.41,9.26q4.41,6,4.42,15.83a25.15,25.15,0,0,1-10.69,21.28q-10.7,7.92-26.52,7.91-25.1,0-39.89-18.71A9.12,9.12,0,0,1,901.78,132Z"/><path class="cls-1" d="M1080.45,54.15a47.45,47.45,0,0,1,17.37,19.12,59.33,59.33,0,0,1,6.27,27.45,59.72,59.72,0,0,1-6.27,27.65,48.33,48.33,0,0,1-17.27,19.22,44.77,44.77,0,0,1-24.57,7,43.58,43.58,0,0,1-21.89-5.66,44.38,44.38,0,0,1-15.94-15.11V188.1a6.17,6.17,0,1,1-12.33,0v-134a6.39,6.39,0,0,1,1.74-4.53,6.22,6.22,0,0,1,8.85,0,6.39,6.39,0,0,1,1.74,4.53V68a38.43,38.43,0,0,1,15.42-15.22,45.27,45.27,0,0,1,22.21-5.55A45.86,45.86,0,0,1,1080.45,54.15ZM1074,137.62a37.18,37.18,0,0,0,13.37-15.11,48,48,0,0,0,4.83-21.79,47,47,0,0,0-4.83-21.49,37.48,37.48,0,0,0-13.37-15,34.94,34.94,0,0,0-19.22-5.45,36.35,36.35,0,0,0-19.53,5.35A35.71,35.71,0,0,0,1021.85,79a48.29,48.29,0,0,0-4.72,21.69,48.93,48.93,0,0,0,4.72,21.79,36.2,36.2,0,0,0,13.37,15.11,35.73,35.73,0,0,0,19.53,5.45A34.86,34.86,0,0,0,1074,137.62Z"/><path class="cls-2" d="M190.72,95.36q0,4.2-.35,8.29A95.37,95.37,0,0,1,35.48,169.58a1.66,1.66,0,0,1-.14-2.47l9.44-9.44a1.66,1.66,0,0,1,2.19-.15,78.78,78.78,0,0,0,126.52-52,1.66,1.66,0,0,0-1.65-1.88h-13.4A1.66,1.66,0,0,0,156.8,105a62.2,62.2,0,0,1-122.88,0,1.65,1.65,0,0,0-1.63-1.39H1.89a1.64,1.64,0,0,1-1.65-1.53Q0,98.78,0,95.36c0-2.79.12-5.56.36-8.29A95.37,95.37,0,0,1,155.25,21.14a1.66,1.66,0,0,1,.13,2.47l-9.44,9.44a1.65,1.65,0,0,1-2.18.15,78.78,78.78,0,0,0-126.52,52,1.66,1.66,0,0,0,1.64,1.88H32.29a1.65,1.65,0,0,0,1.63-1.39,62.21,62.21,0,0,1,97.6-40.93,1.66,1.66,0,0,1,.2,2.52l-9.55,9.55a1.65,1.65,0,0,1-2.06.23,45.6,45.6,0,1,0,19.69,48.63,1.66,1.66,0,0,0-1.62-2H97A1.65,1.65,0,0,1,95.36,102V88.73A1.66,1.66,0,0,1,97,87.07h91.81a1.66,1.66,0,0,1,1.66,1.53C190.64,90.83,190.72,93.09,190.72,95.36Z"/></g></g></svg>