<?xml version="1.0" standalone="no"?>
<!DOCTYPE svg PUBLIC "-//W3C//DTD SVG 20010904//EN"
 "http://www.w3.org/TR/2001/REC-SVG-20010904/DTD/svg10.dtd">
<svg version="1.0" xmlns="http://www.w3.org/2000/svg"
 width="200.000000pt" height="200.000000pt" viewBox="0 0 200.000000 200.000000"
 preserveAspectRatio="xMidYMid meet">
<metadata>
Created by potrace 1.14, written by Peter Selinger 2001-2017
</metadata>
<g transform="translate(0.000000,200.000000) scale(0.100000,-0.100000)"
fill="#000000" stroke="none">
<path d="M868 1995 c-2 -2 -21 -5 -43 -9 -182 -26 -373 -125 -522 -269 -191
-184 -298 -431 -302 -696 -2 -88 0 -100 16 -105 10 -3 87 -5 171 -5 84 1 155
-1 158 -3 2 -3 14 -38 25 -79 47 -170 169 -325 314 -401 118 -62 209 -81 345
-75 189 9 305 60 440 197 85 86 134 177 170 318 l11 43 82 -3 c80 -3 82 -3 81
-28 -7 -114 -84 -287 -179 -403 -108 -131 -272 -235 -440 -278 -112 -29 -281
-29 -390 0 -89 24 -202 74 -269 120 -25 17 -49 31 -54 31 -15 0 -112 -100
-112 -115 0 -34 188 -143 315 -184 125 -41 161 -46 315 -46 155 0 184 4 300
41 411 129 692 504 699 932 2 89 0 101 -16 106 -23 7 -951 6 -969 -1 -15 -6
-20 -138 -6 -160 5 -8 62 -12 197 -12 105 0 205 0 223 0 43 -1 42 -25 -3 -120
-128 -267 -469 -348 -711 -170 -209 154 -251 451 -93 665 129 176 388 241 577
145 71 -36 74 -35 130 19 29 28 52 59 52 69 0 31 -149 101 -271 127 -48 10
-207 4 -265 -11 -232 -59 -420 -247 -479 -479 -8 -32 -16 -61 -19 -63 -8 -9
-149 -4 -158 5 -7 7 -2 40 11 93 95 377 417 630 801 631 169 0 330 -49 464
-141 25 -17 49 -31 54 -31 15 0 112 100 112 116 0 31 -183 140 -300 179 -116
39 -214 54 -342 53 -65 0 -119 -2 -120 -3z"/>
</g>
</svg>
